# xmcd
#
# Track frame offsets: 
#        150
#        49566
#        70543
#        86738
#        110150
#        126143
#        148326
#        199407
#        226612
#        249427
#
# Disc length: 3673 seconds
#
# Revision: 0
# Processed by: cddbd v1.5.2PL0 Copyright (c) Steve Scherf et al.
# Submitted via: ExactAudioCopyFreeDBPlugin 1.0
#
DISCID=8b0e570a
DTITLE=B.B. King - Anthology - Dejavu Definitive Gold [Disc 5]
DYEAR=2010
DGENRE=General Electrib Blues
TTITLE0=B.B.'s Intron And Theme
TTITLE1=Why I sing The Blues
TTITLE2=Outside Help
TTITLE3=DArlin' You Know I Love You
TTITLE4=Caledonia
TTITLE5=Every Day (I Have The Blues)
TTITLE6=The Letter
TTITLE7=Sweet Little Angel
TTITLE8=The Thrill Is Gone
TTITLE9=Guess Who
EXTD=
EXTT0=
EXTT1=
EXTT2=
EXTT3=
EXTT4=
EXTT5=
EXTT6=
EXTT7=
EXTT8=
EXTT9=
PLAYORDER=
